# xmcd
#
# Track frame offsets: 
#        150
#        10185
#        20760
#        33461
#        43428
#        55973
#        71781
#        82506
#        94776
#        113202
#        136769
#        146640
#        156616
#        169738
#        185356
#        195171
#        207267
#        221859
#        237061
#        249954
#        265353
#        279188
#        288322
#        297057
#        307577
#        323597
#
# Disc length: 4619 seconds
#
# Revision: 2
# Processed by: cddbd v1.5.2PL0 Copyright (c) Steve Scherf et al.
# Submitted via: ExactAudioCopy v0.99pb5
#
DISCID=7112091a
DTITLE=Jimmy Powell and The 5 Dimensions - Sugar Babe
DYEAR=2003
DGENRE=Blues
TTITLE0=That's alright
TTITLE1=I'm looking for a woman
TTITLE2=Sugar babe (single version)
TTITLE3=I've been watching you
TTITLE4=I can go down
TTITLE5=Captain man
TTITLE6=Sugar man
TTITLE7=Slow down
TTITLE8=House of the rising sun
TTITLE9=Witness to a war
TTITLE10=Strangers on a train
TTITLE11=Ivory
TTITLE12=Back in the U.S.S.R.
TTITLE13=Out of time
TTITLE14=Sugar babe (LP version
TTITLE15=Hold on
TTITLE16=Roosevelt and Ira Lee
TTITLE17=Slow Lovin' man
TTITLE18=Hipster
TTITLE19=Do you really have a heart ?
TTITLE20=Real cool
TTITLE21=Gonna find a cave
TTITLE22=I'm a rocker
TTITLE23=Nine live wire
TTITLE24=Progressive talking blues
TTITLE25=Messing around with the blues
EXTD=
EXTT0=
EXTT1=
EXTT2=
EXTT3=
EXTT4=
EXTT5=
EXTT6=
EXTT7=
EXTT8=
EXTT9=
EXTT10=
EXTT11=
EXTT12=
EXTT13=
EXTT14=
EXTT15=
EXTT16=
EXTT17=
EXTT18=
EXTT19=
EXTT20=
EXTT21=
EXTT22=
EXTT23=
EXTT24=
EXTT25=
PLAYORDER=
